<svg xmlns="http://www.w3.org/2000/svg" viewBox="0 0 3000 3000" width="3000" height="3000"><g transform="translate(611.6666666666667 1518.3333333333335) rotate(0.0 73.33333333333331 421.66666666666674) scale(1.7087046853459154 1.7098522633577986)"><svg width="85.835" height="493.22" viewBox="0 0 85.835 493.22"><path d="M27.6 1.011c17.063-.955 34.553 61.32 35.508 78.383l21.679 387.33c.955 17.063-12.637 24.441-29.7 25.396-17.063.955-31.393-4.86-32.348-21.923L1.06 82.867C.105 65.803 10.537 1.966 27.6 1.011z" fill="#badcee"/><path d="m1.58 75.293 59.854-3.35S48.325 3.414 28.189.297 1.58 75.293 1.58 75.293z" fill="#ffd6c0"/><g fill="#112c41"><path d="M51.538 493.222c-18.18 0-28.973-8.246-29.798-22.969L.062 82.922c-.474-8.467 1.892-28.947 6.542-47.27C10.652 19.701 17.57.57 27.544.013c.147-.009.297-.013.444-.013C46.22 0 63.165 62.517 64.107 79.338l21.678 387.33c.877 15.671-10.292 25.312-30.642 26.45a64.508 64.508 0 0 1-3.605.104zM28.004 1.999c-.116 0-.232.004-.348.01-6.738.378-13.704 12.819-19.113 34.136C3.94 54.283 1.593 74.49 2.059 82.81l21.679 387.331c1.103 19.716 20.079 21.607 31.294 20.98 11.214-.628 29.861-4.625 28.757-24.343L62.11 79.449c-1.014-18.121-18.366-77.45-34.106-77.45z"/><path d="m10.972 25.466 35.255-1.973-8.431-16.294-9.357-6.183s-5.511-1.578-9.477 6.189-7.989 18.261-7.989 18.261z"/></g></svg></g><g transform="translate(408.33333333333337 1573.3333333333335) rotate(0.0 180.0 463.33333333333326) scale(3.424624956003082 3.384576800065256)"><svg width="105.121" height="273.791" viewBox="0 0 105.121 273.791"><path d="M19.093 92.515a2.5 2.5 0 0 1-.905-4.831c.003-.001 2.287-.956 3.122-3.078.569-1.447.371-3.233-.59-5.309-2.739-5.919-5.771-11.327-8.702-16.557C6.05 52.094.897 42.9.131 33.013-1.746 8.779 17.135 5.228 17.326 5.195a2.5 2.5 0 0 1 .864 4.925c-.63.116-14.589 2.942-13.074 22.508.681 8.788 5.585 17.537 11.263 27.667 2.978 5.313 6.058 10.807 8.878 16.902 1.571 3.396 1.798 6.53.674 9.316-1.641 4.065-5.5 5.663-5.935 5.832-.296.115-.602.17-.903.17z" fill="#112c41"/><path d="M23.113 17.243a4 4 0 0 1-4.951-2.737l-2.418-8.398a4 4 0 0 1 7.688-2.214l2.418 8.398a4 4 0 0 1-2.737 4.951z" fill="#ffe993"/><path d="M21.999 18.402a4.975 4.975 0 0 1-2.412-.626 4.969 4.969 0 0 1-2.386-2.992l-2.418-8.398c-.37-1.284-.217-2.634.429-3.803S16.921.567 18.204.197c1.285-.37 2.634-.217 3.803.429s2.016 1.709 2.386 2.992l2.418 8.398a5.006 5.006 0 0 1-4.812 6.386zM19.587 2.001c-.274 0-.553.038-.829.118-.77.222-1.408.73-1.795 1.431s-.479 1.512-.257 2.282l2.418 8.398c.222.77.73 1.408 1.432 1.795a2.98 2.98 0 0 0 2.281.257 3.004 3.004 0 0 0 2.053-3.713l-2.418-8.397a3.007 3.007 0 0 0-2.885-2.171z" fill="#112c41"/><path d="m37.556 24.465 66.059 229.41c1.634 5.675-2.1 17.57-6.548 18.821-4.201 1.239-13.92-6.782-15.554-12.457L15.454 30.829c-1.634-5.675 1.99-11.702 8.092-13.459 3.056-.88 6.146-.521 8.68.762 2.533 1.283 4.511 3.491 5.33 6.333z" fill="#DEDFFE"/><path d="m103.751 254.349.184 3.818c.625 2.172.104 6.07-1.528 9.15-1.516 2.867-3.195 4.769-5.34 5.38-2.026.59-2.145.174-4.973-1.442-3.058-1.729-7.714-5.104-8.339-7.276l-2.106-3.265c7.898-1.267 15.129-3.621 22.102-6.365z" fill="#ffe993"/><path d="M102.478 265.361c-1.287 3.661-3.266 6.728-5.411 7.336-2.025.593-5.332-.952-8.388-3.362 4.879.005 9.431-1.546 13.799-3.974z" fill="#112c41"/><path d="M96.233 273.792c-1.641 0-3.439-.771-4.777-1.506-4.315-2.368-9.531-7.431-10.79-11.803L14.608 31.073c-1.784-6.197 2.153-12.79 8.776-14.697 3.194-.92 6.536-.625 9.408.831 2.898 1.467 4.972 3.935 5.84 6.948l66.059 229.411c1.277 4.435-.396 11.46-2.75 15.69-1.342 2.41-2.894 3.921-4.487 4.37-.39.115-.8.166-1.221.166zM27.072 17.851c-1.043 0-2.097.148-3.134.447-5.563 1.602-8.887 7.084-7.408 12.221L82.589 259.93c.965 3.353 5.467 8.208 9.83 10.603 1.878 1.03 3.51 1.455 4.481 1.172 1.066-.301 2.231-1.514 3.293-3.421 2.377-4.271 3.558-10.758 2.576-14.165L36.71 24.709c-.712-2.474-2.424-4.504-4.821-5.718a10.647 10.647 0 0 0-4.817-1.14z" fill="#112c41"/><path d="M57.085 81.01c-9.02 4.813-18.63 7.58-28.829 8.301L11.272 30.33c-2.132-7.403 2.594-15.263 10.554-17.555 7.961-2.292 16.142 1.851 18.274 9.254z" fill="#DEDFFE"/><path d="M28.255 90.311a1 1 0 0 1-.96-.723L10.311 30.607C8.03 22.686 13.072 14.255 21.55 11.814s17.231 2.018 19.512 9.938l16.983 58.981a1 1 0 0 1-.49 1.159 72.577 72.577 0 0 1-29.3 8.419zm-1.999-77.166c-1.366 0-2.763.19-4.152.59-7.418 2.136-11.846 9.457-9.87 16.318l16.758 58.199a70.517 70.517 0 0 0 26.907-7.747L39.14 22.306c-1.606-5.577-6.955-9.161-12.884-9.161z" fill="#112c41"/></svg></g><g transform="translate(1620.0 711.6666666666667) rotate(0.0 344.16666666666674 527.5) scale(1.6538761571126288 1.6503018253433175)"><svg width="416.194" height="639.277" viewBox="0 0 416.194 639.277"><path d="M376.598 630.665a1 1 0 0 1-.898-1.439c12.526-25.668 22.118-50.702 28.508-74.408a1.001 1.001 0 0 1 1.931.522c-6.424 23.827-16.06 48.981-28.642 74.764a1 1 0 0 1-.899.562zm38.449-153.663a1 1 0 0 1-.999-.964c-.991-27.347-7.142-53.171-18.28-76.757a1 1 0 1 1 1.808-.853c11.255 23.831 17.469 49.919 18.47 77.538a.999.999 0 0 1-.963 1.035h-.037zm-65.805-140.935a.996.996 0 0 1-.681-.268c-18.405-17.134-40.431-32.344-65.467-45.209a1 1 0 0 1 .914-1.78c25.199 12.949 47.376 28.266 65.916 45.523a1.001 1.001 0 0 1-.681 1.732zm-140.414-74.438a.984.984 0 0 1-.362-.068c-13.97-5.426-42.036-16.952-73.054-33.181a1 1 0 0 1 .928-1.772c30.932 16.183 58.921 27.677 72.851 33.089a1 1 0 0 1-.362 1.932zM67.872 186.323a.997.997 0 0 1-.601-.201c-24.576-18.499-42.842-37.313-54.291-55.917-.361-.586-.714-1.172-1.059-1.756a1 1 0 1 1 1.722-1.017c.338.573.685 1.148 1.039 1.724 11.317 18.391 29.415 37.019 53.79 55.368a1 1 0 0 1-.602 1.798zM11.723 53.239a1 1 0 0 1-.854-1.519C30.65 19.096 71.221.277 71.629.09a1 1 0 0 1 .832 1.82c-.402.184-40.425 18.758-59.882 50.848a1 1 0 0 1-.856.481z" fill="#112c41"/></svg></g><g transform="translate(518.3333333333334 1941.6666666666667) rotate(0.0 184.16666666666669 306.66666666666663) scale(1.6939772593134257 1.6956868729875236)"><svg width="217.437" height="361.702" viewBox="0 0 217.437 361.702"><path d="M13.489 19.578h190.459v324.109c0 9.391-7.624 17.015-17.015 17.015H30.505c-9.391 0-17.015-7.624-17.015-17.015V19.578z" fill="#b2b0f7"/><path d="M106.948 360.702H31.645c-9.397 0-17.016-7.618-17.016-17.015V176.323c9.09 144.655 35.643 172.74 92.319 184.379z" fill="#9797f7"/><g fill="#112c41"><path d="M186.932 361.703H30.505c-9.934 0-18.016-8.082-18.016-18.016V19.578a1 1 0 0 1 1-1h190.459a1 1 0 0 1 1 1v324.109c0 9.934-8.082 18.016-18.015 18.016zM14.489 20.578v323.109c0 8.831 7.185 16.016 16.016 16.016h156.427c8.831 0 16.015-7.185 16.015-16.016V20.578z"/><path d="M186.932 361.703H30.505c-9.934 0-18.016-8.082-18.016-18.016V19.578a1 1 0 0 1 1-1h190.459a1 1 0 0 1 1 1v324.109c0 9.934-8.082 18.016-18.015 18.016zM14.489 20.578v323.109c0 8.831 7.185 16.016 16.016 16.016h156.427c8.831 0 16.015-7.185 16.015-16.016V20.578z"/><path d="M186.932 361.703H30.505c-9.934 0-18.016-8.082-18.016-18.016V19.578a1 1 0 0 1 1-1h190.459a1 1 0 0 1 1 1v324.109c0 9.934-8.082 18.016-18.015 18.016zM14.489 20.578v323.109c0 8.831 7.185 16.016 16.016 16.016h156.427c8.831 0 16.015-7.185 16.015-16.016V20.578z"/></g><rect fill="#b2b0f7" height="47.489" rx="12.255" width="215.437" x="1" y="1"/><path d="M204.182 49.49H13.255C5.946 49.49 0 43.543 0 36.234V13.255C0 5.947 5.946 0 13.255 0h190.927c7.309 0 13.255 5.946 13.255 13.255v22.979c0 7.31-5.946 13.256-13.255 13.256zM13.255 2C7.049 2 2 7.049 2 13.255v22.979C2 42.44 7.049 47.49 13.255 47.49h190.927c6.206 0 11.255-5.05 11.255-11.256V13.255C215.437 7.049 210.388 2 204.182 2z" fill="#112c41"/><path d="M144.182 221.056c.34.84 13.79 34.78 2.45 42.24-11.03 7.25-37.53-18.72-37.83-19.01-1.12 1.11-26.94 26.11-37.78 18.98-.8-.52-1.47-1.18-2.03-1.95-7.59-10.26 4.48-40.31 4.48-40.31-1.94-1.229-31.67-20.05-27.38-32.15 4.55-12.85 41-7.79 41.62-7.71.09-.43 7.5-36.65 21.16-36.65 7.11 0 12.68 10.53 16.31 20.3 3.11 8.35 4.81 16.15 4.86 16.35.62-.08 36.92-5.12 41.59 7.63.01.03.02.05.03.08 4.4 12.42-27.05 31.93-27.48 32.2z" fill="#ffe993"/><path d="M142.015 265.554c-11.572 0-28.994-15.868-33.209-19.877-3.788 3.634-21.368 19.864-33.108 19.866-1.929 0-3.699-.438-5.226-1.441a8.7 8.7 0 0 1-2.289-2.198c-7.222-9.763 2.17-35.584 4.059-40.497-6.67-4.3-31.261-21.125-27.092-32.885 4.348-12.279 33.84-9.478 41.778-8.485 1.443-6.568 8.75-36.54 21.945-36.54 6.279 0 12.082 7.049 17.248 20.951 2.455 6.593 4.061 12.921 4.692 15.591 7.98-.993 37.304-3.77 41.759 8.395l.037.1c4.272 12.06-21.722 29.434-27.192 32.927 2.077 5.364 13.017 35.271 1.766 42.672-1.506.99-3.257 1.423-5.167 1.423zm-33.213-22.268a1 1 0 0 1 .695.281c9.123 8.877 28.482 24.225 36.586 18.893 8.925-5.871.985-31.607-2.828-41.029a1.001 1.001 0 0 1 .396-1.223l.019-.012c10.772-6.726 30.289-21.863 27.05-31.007-3.443-9.398-27.074-8.853-40.498-7.059-.505.065-1.027-.25-1.15-.743l-.03-.129c-.443-1.948-2.099-8.869-4.797-16.114-3.331-8.964-8.702-19.648-15.373-19.648-10.082 0-17.607 23.442-20.177 35.837a1.023 1.023 0 0 1-1.111.805c-13.527-1.81-37.222-2.346-40.549 7.052C43.13 200.206 70.829 218.147 74 220.157c.407.258.58.774.4 1.223-.119.295-11.776 29.647-4.604 39.342a6.73 6.73 0 0 0 1.771 1.706c8.631 5.683 29.296-11.683 36.531-18.851a.997.997 0 0 1 .704-.29z" fill="#112c41"/></svg></g><g transform="translate(718.3333333333334 936.6666666666667) rotate(0.0 676.6666666666667 805.0000000000001) scale(1.6720472818729897 1.6709183408714932)"><svg width="809.387" height="963.542" viewBox="0 0 809.387 963.542"><path d="M427.184 525.873a5 5 0 0 1-4.33-2.5L176.534 96.734a4.999 4.999 0 0 1 1.83-6.83 4.998 4.998 0 0 1 6.83 1.83l241.99 419.138L669.173 91.734a5 5 0 0 1 8.66 5l-246.32 426.638a5 5 0 0 1-4.33 2.5z" fill="#112c41"/><path d="M650.704 962.542c-17.089 0-33.708-8.868-42.867-24.731l-180.653-312.9-180.653 312.9c-13.654 23.649-43.895 31.752-67.543 18.098-23.649-13.654-31.752-43.894-18.098-67.543l223.474-387.068a49.445 49.445 0 0 1 85.642 0L693.48 888.366c13.654 23.649 5.551 53.889-18.098 67.543a49.216 49.216 0 0 1-24.677 6.633z" fill="#ffa9dc"/><path d="M203.627 963.555c-8.741 0-17.367-2.292-25.14-6.78-24.089-13.908-32.372-44.821-18.464-68.909l223.474-387.068c8.982-15.558 25.722-25.223 43.687-25.223s34.704 9.665 43.687 25.223l223.474 387.068c13.908 24.088 5.625 55.001-18.464 68.909a50.433 50.433 0 0 1-25.177 6.767c-17.99 0-34.748-9.668-43.733-25.231L427.184 626.912 247.397 938.311c-6.737 11.669-17.615 20.017-30.631 23.504a50.71 50.71 0 0 1-13.139 1.741zm223.557-485.98c-17.252 0-33.328 9.281-41.955 24.223L161.755 888.866c-13.356 23.133-5.402 52.82 17.732 66.177 11.206 6.47 24.261 8.187 36.76 4.84 12.5-3.35 22.947-11.365 29.417-22.572l181.519-314.399 181.519 314.399c8.629 14.946 24.723 24.231 42.001 24.231a48.43 48.43 0 0 0 24.177-6.499c23.134-13.356 31.089-43.044 17.732-66.177L469.138 501.798c-8.626-14.941-24.702-24.223-41.955-24.223z" fill="#112c41"/><circle cx="382.194" cy="518.176" fill="#ffa9dc" r="381.194"/><path d="M409.981 853.476c-210.528 0-381.194-170.666-381.194-381.194 0-64.63 16.089-125.5 44.473-178.832C28.513 355.921 2.17 432.471 2.17 515.176c0 210.527 170.666 381.194 381.194 381.194 145.898 0 272.646-81.968 336.721-202.362-69.157 96.551-182.281 159.468-310.104 159.468z" fill="#ff90d8"/><path d="M382.194 900.37c-51.595 0-101.648-10.105-148.767-30.035-45.511-19.25-86.385-46.807-121.484-81.906-35.1-35.1-62.657-75.974-81.907-121.484C10.105 619.824 0 569.772 0 518.176s10.105-101.648 30.035-148.768c19.25-45.512 46.807-86.385 81.907-121.484 35.1-35.1 75.973-62.657 121.484-81.907 47.119-19.93 97.172-30.035 148.767-30.035s101.648 10.105 148.767 30.035c45.511 19.25 86.385 46.808 121.484 81.907s62.657 75.973 81.907 121.484c19.93 47.119 30.035 97.172 30.035 148.768s-10.105 101.647-30.035 148.768c-19.25 45.511-46.807 86.385-81.907 121.484s-75.973 62.656-121.484 81.906c-47.119 19.93-97.172 30.035-148.767 30.035zm0-762.387C172.554 137.983 2 308.537 2 518.176s170.554 380.193 380.194 380.193 380.194-170.554 380.194-380.193-170.555-380.193-380.194-380.193z" fill="#112c41"/><circle cx="427.194" cy="518.176" fill="#ffa9dc" r="381.194"/><path d="M427.194 900.37c-51.595 0-101.648-10.105-148.767-30.035-45.511-19.25-86.385-46.807-121.484-81.906-35.1-35.1-62.657-75.974-81.907-121.484-19.93-47.12-30.035-97.172-30.035-148.768s10.105-101.648 30.035-148.768c19.25-45.512 46.807-86.385 81.907-121.484 35.1-35.1 75.973-62.657 121.484-81.907 47.119-19.93 97.172-30.035 148.767-30.035s101.648 10.105 148.767 30.035c45.511 19.25 86.385 46.808 121.484 81.907s62.657 75.973 81.907 121.484c19.93 47.119 30.035 97.172 30.035 148.768s-10.105 101.647-30.035 148.768c-19.25 45.511-46.807 86.385-81.907 121.484s-75.973 62.656-121.484 81.906c-47.119 19.93-97.172 30.035-148.767 30.035zm0-762.387C217.555 137.983 47 308.537 47 518.177S217.554 898.37 427.194 898.37s380.194-170.554 380.194-380.193-170.555-380.194-380.194-380.194z" fill="#112c41"/><circle cx="427.194" cy="518.176" fill="#fff" r="349.927"/><path d="M427.194 869.102c-47.374 0-93.332-9.278-136.597-27.578-41.788-17.675-79.318-42.978-111.546-75.206s-57.531-69.757-75.206-111.545c-18.299-43.265-27.578-89.223-27.578-136.597s9.279-93.332 27.578-136.597c17.675-41.789 42.978-79.318 75.206-111.546 32.228-32.229 69.758-57.531 111.546-75.206 43.265-18.3 89.222-27.578 136.597-27.578s93.332 9.278 136.597 27.578c41.788 17.675 79.318 42.978 111.546 75.206s57.531 69.757 75.206 111.546c18.299 43.265 27.578 89.222 27.578 136.597s-9.279 93.332-27.578 136.597c-17.675 41.788-42.978 79.317-75.206 111.545-32.228 32.229-69.758 57.531-111.546 75.206-43.265 18.3-89.222 27.578-136.597 27.578zm0-699.853c-192.399 0-348.927 156.528-348.927 348.927s156.528 348.926 348.927 348.926 348.927-156.527 348.927-348.926S619.592 169.25 427.194 169.25z" fill="#112c41"/><g fill="#222433"><path d="M426.49 837.015a5 5 0 0 1-5-5v-57.997a5 5 0 1 1 10 0v57.997a5 5 0 0 1-5 5zm0-569.488a5 5 0 0 1-5-5v-57.998a5 5 0 1 1 10 0v57.998a5 5 0 0 1-5 5zM169.844 523.272h-57.998a5 5 0 1 1 0-10h57.998a5 5 0 1 1 0 10zm569.489 0h-57.998a5 5 0 1 1 0-10h57.998a5 5 0 1 1 0 10z"/></g><circle cx="426.622" cy="518.044" fill="#b2b0f7" r="89.413"/><path d="M426.622 608.457c-49.854 0-90.413-40.559-90.413-90.412s40.559-90.413 90.413-90.413 90.413 40.56 90.413 90.413-40.559 90.412-90.413 90.412zm0-178.825c-48.751 0-88.413 39.662-88.413 88.413s39.662 88.412 88.413 88.412 88.413-39.661 88.413-88.412-39.662-88.413-88.413-88.413z" fill="#112c41"/><rect fill="#9797f7" height="208.085" rx="10.34" width="28.085" x="412.503" y="324.064"/><path d="M430.248 533.149h-7.404c-6.253 0-11.34-5.087-11.34-11.34V334.405c0-6.253 5.087-11.341 11.34-11.341h7.404c6.253 0 11.341 5.088 11.341 11.341v187.404c0 6.253-5.087 11.34-11.341 11.34zm-7.404-208.085c-5.15 0-9.34 4.19-9.34 9.341v187.404c0 5.15 4.19 9.34 9.34 9.34h7.404c5.15 0 9.341-4.189 9.341-9.34V334.405c0-5.15-4.19-9.341-9.341-9.341z" fill="#112c41"/><rect fill="#9797f7" height="262.041" rx="10.34" transform="matrix(.66594677 .74599926 -.74599926 .66594677 561.632 -45.163)" width="28.085" x="317.201" y="473.502"/><path d="M243.688 698.986a11.319 11.319 0 0 1-8.467-3.783l-4.931-5.523c-4.164-4.665-3.757-11.849.908-16.013l180.056-160.731a11.265 11.265 0 0 1 8.193-2.85 11.264 11.264 0 0 1 7.819 3.758l4.931 5.523c2.01 2.251 3.021 5.161 2.85 8.193s-1.506 5.809-3.758 7.818L251.233 696.11a11.296 11.296 0 0 1-7.546 2.875zm-11.905-10.639 4.931 5.523c3.43 3.841 9.346 4.176 13.188.748l180.056-160.732c1.853-1.653 2.951-3.94 3.093-6.439s-.691-4.896-2.345-6.748l-4.931-5.523a9.274 9.274 0 0 0-6.44-3.093 9.262 9.262 0 0 0-6.748 2.345L232.531 675.159c-3.842 3.43-4.178 9.346-.748 13.188z" fill="#112c41"/><circle cx="426.771" cy="518.15" fill="#9797f7" r="33.959"/><path d="M426.771 553.109c-19.276 0-34.959-15.682-34.959-34.958s15.682-34.959 34.959-34.959 34.958 15.683 34.958 34.959-15.682 34.958-34.958 34.958zm0-67.917c-18.174 0-32.959 14.785-32.959 32.959s14.785 32.958 32.959 32.958 32.958-14.785 32.958-32.958-14.785-32.959-32.958-32.959z" fill="#112c41"/><path d="M306.482 86.747c14.826-8.598 17.598-28.763 5.775-41.17C267.388-1.509 194.573-13.61 135.835 20.455 77.096 54.52 51.438 123.732 70.024 186.06c4.897 16.424 23.777 24.032 38.603 15.433L306.482 86.746z" fill="#ffa9dc"/><path d="M95.427 206.068c-3.408 0-6.831-.644-10.107-1.944-7.895-3.132-13.819-9.612-16.254-17.777-9.143-30.662-7.746-64.063 3.935-94.05 12.034-30.895 33.589-56.036 62.332-72.706 28.743-16.67 61.27-22.893 94.062-17.996 31.829 4.753 61.514 20.128 83.586 43.291 5.879 6.169 8.561 14.529 7.359 22.938-1.193 8.345-6.061 15.557-13.356 19.788l-.502-.865.502.865-197.855 114.747a27.263 27.263 0 0 1-13.701 3.709zM208.245 1.887c-24.573 0-49.366 6.36-71.909 19.434C78.914 54.623 52.04 122.249 70.983 185.774c2.259 7.575 7.753 13.586 15.075 16.491 7.262 2.88 15.305 2.285 22.067-1.637L305.98 85.881c6.762-3.921 11.274-10.606 12.38-18.34 1.115-7.798-1.374-15.553-6.827-21.275-27.778-29.15-65.267-44.379-103.288-44.379z" fill="#112c41"/><path d="M544.221 87.768c-14.826-8.598-17.598-28.763-5.775-41.17C583.314-.488 656.13-12.589 714.868 21.476s84.396 103.277 65.81 165.605c-4.897 16.424-23.777 24.032-38.603 15.433L544.22 87.767z" fill="#ffa9dc"/><path d="M755.275 207.089c-4.743 0-9.456-1.247-13.701-3.709L543.719 88.633c-7.295-4.231-12.163-11.443-13.356-19.788-1.202-8.408 1.48-16.769 7.359-22.938 22.073-23.164 51.758-38.538 83.586-43.292 32.793-4.897 65.318 1.325 94.062 17.995 28.743 16.67 50.297 41.812 62.332 72.707 11.681 29.987 13.078 63.388 3.935 94.05-2.435 8.165-8.36 14.646-16.255 17.777a27.372 27.372 0 0 1-10.107 1.944zM642.458 2.908c-38.025 0-75.507 15.227-103.288 44.38-5.453 5.722-7.941 13.477-6.827 21.275 1.105 7.734 5.618 14.419 12.38 18.34L742.578 201.65c6.762 3.922 14.805 4.519 22.067 1.637 7.322-2.905 12.817-8.916 15.076-16.491 18.943-63.526-7.932-131.152-65.354-164.454-22.539-13.072-47.34-19.434-71.909-19.434z" fill="#112c41"/><path d="M284.684 71.188a6.984 6.984 0 0 1-5.069-2.171C246.201 33.953 193.56 26.458 151.6 50.793a7 7 0 0 1-7.023-12.11c23.488-13.623 50.07-18.708 76.87-14.705 26.006 3.884 50.263 16.449 68.304 35.381a6.999 6.999 0 0 1-.239 9.896 6.974 6.974 0 0 1-4.828 1.933zm464.08 40.018a7.003 7.003 0 0 1-6.587-4.632C725.776 61 680.65 32.878 632.434 38.19a7 7 0 1 1-1.532-13.916c26.989-2.974 53.359 3.114 76.259 17.602 22.221 14.058 39.335 35.352 48.19 59.958a7 7 0 0 1-6.586 9.373z" fill="#fff"/></svg></g><g transform="translate(1600.0 1705.0) rotate(0.0 490.0 425.0) scale(1.6638426616049629 1.6647081864473168)"><svg width="588.998" height="510.6" viewBox="0 0 588.998 510.6"><circle cx="381.05" cy="289.42" fill="#ffa9dc" r="45.9"/><path d="M381.05 336.32c-25.861 0-46.9-21.039-46.9-46.9s21.039-46.9 46.9-46.9 46.9 21.039 46.9 46.9-21.039 46.9-46.9 46.9zm0-91.801c-24.758 0-44.9 20.143-44.9 44.9s20.142 44.9 44.9 44.9 44.9-20.143 44.9-44.9-20.142-44.9-44.9-44.9z" fill="#112c41"/><path d="M413.633 509.6H33.247c-18.734 0-33.525-15.911-32.16-34.596L31.143 63.687c1.231-16.852 15.263-29.896 32.16-29.896h380.385c18.734 0 33.525 15.911 32.16 34.596l-30.056 411.318c-1.231 16.852-15.263 29.896-32.16 29.896z" fill="#9797f7"/><path d="M413.632 510.6H33.247c-9.342 0-17.989-3.769-24.35-10.61-6.36-6.842-9.488-15.741-8.807-25.059L30.146 63.613c1.263-17.283 15.827-30.822 33.157-30.822h380.385c9.342 0 17.99 3.769 24.35 10.61 6.361 6.842 9.489 15.741 8.808 25.059L446.79 479.778c-1.263 17.283-15.828 30.822-33.157 30.822zM63.303 34.791c-16.287 0-29.975 12.725-31.163 28.969L2.085 475.078c-.64 8.756 2.3 17.12 8.278 23.551s14.105 9.972 22.885 9.972h380.384c16.287 0 29.976-12.725 31.163-28.969l30.056-411.318c.64-8.756-2.3-17.12-8.278-23.551s-14.105-9.972-22.885-9.972H63.303z" fill="#112c41"/><path d="M93.493 509.6h467.183c15.873 0 28.404-13.481 27.248-29.311L557.148 59.12c-1.043-14.278-12.932-25.329-27.248-25.329H62.717c-15.873 0-28.404 13.481-27.248 29.311l30.776 421.169c1.043 14.278 12.932 25.329 27.248 25.329z" fill="#cbc8ff"/><path d="M560.676 510.6H93.493c-14.762 0-27.169-11.533-28.245-26.256L34.472 63.176c-.58-7.938 2.085-15.518 7.503-21.347 5.418-5.828 12.785-9.038 20.742-9.038H529.9c14.762 0 27.169 11.533 28.245 26.256l30.776 421.169c.58 7.938-2.084 15.518-7.502 21.347-5.418 5.828-12.784 9.038-20.742 9.038zM62.717 34.791c-7.396 0-14.242 2.983-19.277 8.4-5.036 5.416-7.512 12.462-6.973 19.838l30.776 421.169c1 13.684 12.531 24.402 26.25 24.402h467.183c7.396 0 14.242-2.983 19.278-8.4s7.512-12.462 6.973-19.838L556.151 59.193c-1-13.684-12.53-24.402-26.25-24.402z" fill="#112c41"/><circle cx="122.489" cy="93.559" fill="#9797f7" r="23.968"/><path d="M122.489 118.527c-13.767 0-24.968-11.2-24.968-24.968s11.201-24.969 24.968-24.969 24.968 11.201 24.968 24.969-11.201 24.968-24.968 24.968zm0-47.937c-12.665 0-22.968 10.304-22.968 22.969s10.303 22.968 22.968 22.968 22.968-10.304 22.968-22.968-10.303-22.969-22.968-22.969z" fill="#112c41"/><circle cx="239" cy="93.559" fill="#9797f7" r="23.968"/><path d="M239.001 118.527c-13.767 0-24.968-11.2-24.968-24.968s11.201-24.969 24.968-24.969 24.968 11.201 24.968 24.969-11.201 24.968-24.968 24.968zm0-47.937c-12.665 0-22.968 10.304-22.968 22.969s10.303 22.968 22.968 22.968 22.968-10.304 22.968-22.968-10.303-22.969-22.968-22.969z" fill="#112c41"/><circle cx="356.843" cy="93.559" fill="#9797f7" r="23.968"/><path d="M356.843 118.527c-13.767 0-24.968-11.2-24.968-24.968s11.201-24.969 24.968-24.969 24.968 11.201 24.968 24.969-11.201 24.968-24.968 24.968zm0-47.937c-12.665 0-22.968 10.304-22.968 22.969s10.303 22.968 22.968 22.968 22.968-10.304 22.968-22.968-10.303-22.969-22.968-22.969z" fill="#112c41"/><circle cx="474.02" cy="93.559" fill="#9797f7" r="23.968"/><g fill="#112c41"><path d="M474.02 118.527c-13.768 0-24.968-11.2-24.968-24.968S460.253 68.59 474.02 68.59s24.968 11.201 24.968 24.969-11.201 24.968-24.968 24.968zm0-47.937c-12.665 0-22.968 10.304-22.968 22.969s10.303 22.968 22.968 22.968 22.968-10.304 22.968-22.968S486.685 70.59 474.02 70.59zm108.882 358.36H63.658a1 1 0 1 1 0-2h519.244a1 1 0 1 1 0 2zm-4.974-91.434H55.835a1 1 0 1 1 0-2h522.093a1 1 0 1 1 0 2zm-8.064-91.433H50.62a1 1 0 1 1 0-2h519.244a1 1 0 1 1 0 2zm-6.004-91.434H43.666a1 1 0 1 1 0-2H563.86a1 1 0 1 1 0 2z"/><path d="M198.477 510.6a1 1 0 0 1-.996-.927l-26.011-355.97a1 1 0 0 1 .925-1.07c.549-.052 1.03.374 1.07.924l26.011 355.97a1 1 0 0 1-.998 1.073zm130.493 0a1 1 0 0 1-.996-.927l-26.011-355.97a1 1 0 0 1 .925-1.07.992.992 0 0 1 1.07.924l26.011 355.97a1 1 0 0 1-.998 1.073zm130.492 0a1 1 0 0 1-.996-.927l-26.011-355.97a1 1 0 0 1 .924-1.07.988.988 0 0 1 1.07.924l26.011 355.97a1 1 0 0 1-.998 1.073z"/></g><path d="M239.989 324.795a7.002 7.002 0 0 1-5.846-3.15l-34.596-52.538a7 7 0 0 1 11.693-7.699l28.334 43.029 42.663-74.476a7 7 0 0 1 12.147 6.959l-48.322 84.354a7.005 7.005 0 0 1-6.075 3.521z" fill="#fff"/><path d="M140.891 46.12a65.101 65.101 0 0 0-3.108-12.341c-7.654-21.27-25.594-35.202-43.975-32.428-10.89 1.641-20.174 8.685-26.141 19.835-2.082 3.891-3.666 8.13-4.74 12.594h13.229a38.979 38.979 0 0 1 2.76-6.574c4.02-7.511 9.984-12.213 16.794-13.239 11.169-1.679 22.223 6.613 28.335 19.812 1.986 4.288 3.453 9.091 4.229 14.242 1.186 7.869.6 15.442-1.373 21.955-3.295 10.874-10.459 18.791-19.709 20.185-2.787.42-5.567.217-8.265-.526a24.135 24.135 0 0 0-.323 3.912c0 3.306.67 6.455 1.88 9.321a31.5 31.5 0 0 0 6.645.143 32.093 32.093 0 0 0 1.963-.233c13.569-2.045 24.223-12.709 29.295-27.232 3.057-8.754 4.087-18.909 2.502-29.426z" fill="#ffe993"/><path d="M104.524 104.123c-1.373 0-2.765-.088-4.163-.263a.999.999 0 0 1-.797-.604 24.806 24.806 0 0 1-1.959-9.709c0-1.346.113-2.717.336-4.074a1 1 0 0 1 1.253-.802c2.623.723 5.265.894 7.85.501 8.528-1.285 15.594-8.57 18.901-19.486 2.003-6.609 2.467-14.049 1.341-21.515-.743-4.934-2.139-9.634-4.148-13.973-6.14-13.259-16.848-20.82-27.279-19.242-6.489.977-12.193 5.494-16.061 12.721a38.161 38.161 0 0 0-2.688 6.405 1 1 0 0 1-.953.696H62.928a1 1 0 0 1-.972-1.234c1.103-4.588 2.729-8.904 4.83-12.832C72.905 9.279 82.449 2.052 93.659.361 112.18-2.426 130.71 11.17 138.724 33.44a66.276 66.276 0 0 1 3.156 12.53c1.557 10.334.676 20.675-2.547 29.905-5.391 15.438-16.64 25.864-30.09 27.892a31.132 31.132 0 0 1-4.719.355zm-3.336-2.18c1.986.212 3.953.236 5.856.072a30.075 30.075 0 0 0 1.9-.227c12.703-1.914 23.357-11.848 28.5-26.573 3.117-8.924 3.967-18.934 2.458-28.946a64.29 64.29 0 0 0-3.06-12.151C129.155 12.758 111.52-.314 93.957 2.34c-10.571 1.593-19.594 8.453-25.409 19.317-1.832 3.424-3.289 7.16-4.337 11.122h11.22a39.982 39.982 0 0 1 2.602-6.045c4.174-7.797 10.398-12.682 17.527-13.756 11.335-1.698 22.869 6.296 29.392 20.381 2.089 4.51 3.539 9.394 4.311 14.514 1.169 7.759.683 15.502-1.405 22.394-3.537 11.674-11.206 19.48-20.517 20.885a20.74 20.74 0 0 1-7.579-.278 23.01 23.01 0 0 0-.158 2.675c0 2.902.532 5.724 1.583 8.396z" fill="#112c41"/><path d="M257.23 46.12a65.101 65.101 0 0 0-3.108-12.341c-7.654-21.27-25.594-35.202-43.975-32.428-10.89 1.641-20.174 8.685-26.141 19.835-2.082 3.891-3.666 8.13-4.74 12.594h13.229a38.979 38.979 0 0 1 2.76-6.574c4.02-7.511 9.984-12.213 16.794-13.239 11.169-1.679 22.223 6.613 28.335 19.812 1.986 4.288 3.453 9.091 4.229 14.242 1.186 7.869.6 15.442-1.373 21.955-3.295 10.874-10.459 18.791-19.709 20.185-2.787.42-5.567.217-8.265-.526a24.135 24.135 0 0 0-.323 3.912c0 3.306.67 6.455 1.88 9.321a31.5 31.5 0 0 0 6.645.143 32.093 32.093 0 0 0 1.963-.233c13.569-2.045 24.223-12.709 29.295-27.232 3.057-8.754 4.087-18.909 2.502-29.426z" fill="#ffe993"/><path d="M220.863 104.123c-1.373 0-2.765-.088-4.163-.263a.999.999 0 0 1-.797-.604 24.806 24.806 0 0 1-1.959-9.709c0-1.346.113-2.717.336-4.074a1 1 0 0 1 1.253-.802c2.623.723 5.264.894 7.85.501 8.528-1.285 15.594-8.57 18.901-19.486 2.003-6.609 2.467-14.05 1.341-21.515-.743-4.934-2.139-9.634-4.148-13.973-6.14-13.259-16.849-20.82-27.28-19.242-6.489.977-12.193 5.494-16.061 12.721a38.183 38.183 0 0 0-2.688 6.405 1 1 0 0 1-.953.696h-13.229a1 1 0 0 1-.972-1.234c1.103-4.588 2.728-8.905 4.83-12.832C189.244 9.277 198.788 2.05 209.998.359c18.521-2.787 37.051 10.809 45.065 33.079a66.238 66.238 0 0 1 3.156 12.53c1.557 10.334.676 20.675-2.547 29.905-5.391 15.438-16.64 25.864-30.09 27.892a31.132 31.132 0 0 1-4.719.355zm-3.336-2.18a30.56 30.56 0 0 0 5.856.072 30.075 30.075 0 0 0 1.9-.227c12.703-1.914 23.357-11.848 28.5-26.573 3.117-8.924 3.967-18.934 2.458-28.946a64.232 64.232 0 0 0-3.06-12.151c-7.686-21.36-25.319-34.432-42.884-31.778-10.571 1.593-19.594 8.453-25.409 19.317-1.832 3.424-3.289 7.16-4.337 11.122h11.22a39.868 39.868 0 0 1 2.602-6.045c4.174-7.797 10.398-12.682 17.527-13.756 11.333-1.7 22.869 6.296 29.392 20.381 2.089 4.511 3.539 9.394 4.311 14.514 1.169 7.758.684 15.501-1.405 22.394-3.537 11.674-11.206 19.48-20.517 20.885a20.74 20.74 0 0 1-7.579-.278 23.01 23.01 0 0 0-.158 2.675c0 2.902.532 5.724 1.583 8.396z" fill="#112c41"/><path d="M375.392 46.12a65.101 65.101 0 0 0-3.108-12.341C364.63 12.508 346.689-1.423 328.309 1.35c-10.89 1.641-20.174 8.685-26.141 19.835-2.082 3.891-3.666 8.13-4.74 12.594h13.229a38.979 38.979 0 0 1 2.76-6.574c4.02-7.511 9.984-12.213 16.794-13.239 11.169-1.679 22.223 6.613 28.335 19.812 1.986 4.288 3.453 9.091 4.229 14.242 1.186 7.869.6 15.442-1.373 21.955-3.295 10.874-10.459 18.791-19.709 20.185-2.787.42-5.567.217-8.265-.526a24.135 24.135 0 0 0-.323 3.912c0 3.306.67 6.455 1.88 9.321a31.5 31.5 0 0 0 6.645.143 32.093 32.093 0 0 0 1.963-.233c13.569-2.045 24.223-12.709 29.295-27.232 3.057-8.754 4.087-18.909 2.502-29.426z" fill="#ffe993"/><path d="M339.025 104.123c-1.373 0-2.765-.088-4.163-.263a.999.999 0 0 1-.797-.604 24.806 24.806 0 0 1-1.959-9.709c0-1.346.113-2.717.336-4.074a1 1 0 0 1 1.253-.802c2.623.723 5.265.894 7.85.501 8.528-1.285 15.594-8.57 18.901-19.486 2.003-6.609 2.467-14.05 1.341-21.515-.744-4.935-2.139-9.635-4.148-13.973-6.14-13.259-16.849-20.82-27.279-19.242-6.489.977-12.193 5.494-16.061 12.721a38.148 38.148 0 0 0-2.688 6.405 1 1 0 0 1-.953.696h-13.229a1 1 0 0 1-.972-1.234c1.103-4.588 2.728-8.905 4.83-12.832C307.407 9.277 316.951 2.05 328.161.359c18.521-2.787 37.051 10.809 45.065 33.079a66.276 66.276 0 0 1 3.156 12.53c1.557 10.334.676 20.675-2.547 29.905-5.391 15.438-16.64 25.864-30.09 27.892a31.132 31.132 0 0 1-4.719.355zm-3.336-2.18c1.986.212 3.954.236 5.856.072a30.075 30.075 0 0 0 1.9-.227c12.703-1.914 23.357-11.848 28.5-26.573 3.117-8.924 3.967-18.934 2.458-28.946a64.29 64.29 0 0 0-3.06-12.151c-7.687-21.36-25.319-34.432-42.885-31.778-10.571 1.593-19.594 8.453-25.409 19.317-1.832 3.424-3.289 7.16-4.337 11.122h11.22a39.868 39.868 0 0 1 2.602-6.045c4.174-7.797 10.398-12.682 17.527-13.756 11.333-1.69 22.869 6.296 29.392 20.381 2.089 4.509 3.539 9.393 4.311 14.514 1.169 7.758.684 15.501-1.405 22.394-3.537 11.674-11.206 19.48-20.517 20.885a20.74 20.74 0 0 1-7.579-.278 23.01 23.01 0 0 0-.158 2.675c0 2.902.532 5.724 1.583 8.396z" fill="#112c41"/><path d="M492.643 46.12a65.101 65.101 0 0 0-3.108-12.341C481.881 12.508 463.94-1.423 445.56 1.35c-10.89 1.641-20.174 8.685-26.141 19.835-2.082 3.891-3.666 8.13-4.74 12.594h13.229a38.979 38.979 0 0 1 2.76-6.574c4.02-7.511 9.984-12.213 16.794-13.239 11.169-1.679 22.223 6.613 28.335 19.812 1.986 4.288 3.453 9.091 4.229 14.242 1.186 7.869.6 15.442-1.373 21.955-3.295 10.874-10.459 18.791-19.709 20.185-2.787.42-5.567.217-8.265-.526a24.135 24.135 0 0 0-.323 3.912c0 3.306.67 6.455 1.88 9.321a31.5 31.5 0 0 0 6.645.143 32.093 32.093 0 0 0 1.963-.233c13.569-2.045 24.223-12.709 29.295-27.232 3.057-8.754 4.087-18.909 2.502-29.426z" fill="#ffe993"/><path d="M456.275 104.123c-1.373 0-2.765-.088-4.163-.263a.999.999 0 0 1-.797-.604 24.806 24.806 0 0 1-1.959-9.709c0-1.347.113-2.718.336-4.074a1 1 0 0 1 1.253-.802c2.623.723 5.265.894 7.85.501 8.528-1.285 15.594-8.57 18.901-19.486 2.003-6.609 2.467-14.05 1.341-21.515-.743-4.934-2.139-9.634-4.148-13.973-6.14-13.259-16.847-20.818-27.279-19.242-6.489.977-12.193 5.494-16.061 12.721a38.065 38.065 0 0 0-2.688 6.405 1 1 0 0 1-.953.696h-13.229a1 1 0 0 1-.972-1.234c1.103-4.588 2.728-8.905 4.83-12.832C424.657 9.277 434.201 2.05 445.411.359c18.521-2.787 37.051 10.809 45.065 33.079a66.238 66.238 0 0 1 3.156 12.53c1.557 10.334.676 20.675-2.547 29.905-5.391 15.438-16.64 25.864-30.09 27.892a31.132 31.132 0 0 1-4.719.355zm-3.336-2.18a30.56 30.56 0 0 0 5.856.072 30.075 30.075 0 0 0 1.9-.227c12.703-1.914 23.357-11.848 28.5-26.573 3.117-8.924 3.967-18.934 2.458-28.946a64.232 64.232 0 0 0-3.06-12.151c-7.687-21.36-25.319-34.432-42.885-31.778-10.571 1.593-19.594 8.453-25.409 19.317-1.832 3.424-3.289 7.16-4.337 11.122h11.22a39.868 39.868 0 0 1 2.602-6.045c4.173-7.797 10.398-12.682 17.527-13.756 11.334-1.698 22.869 6.296 29.392 20.381 2.089 4.511 3.539 9.394 4.311 14.514 1.169 7.758.684 15.501-1.405 22.394-3.537 11.674-11.206 19.48-20.517 20.885a20.733 20.733 0 0 1-7.578-.278 23.01 23.01 0 0 0-.158 2.675c0 2.902.532 5.724 1.583 8.396z" fill="#112c41"/></svg></g><g transform="translate(2183.3333333333335 468.33333333333337) rotate(23.110322101861115 -198.33333333333337 143.33333333333331) scale(-1.9064005395594137 1.898027375734382)"><svg width="208.071" height="151.034" viewBox="0 0 208.071 151.034"><path d="m206.8 30.89-34.095 39.997L1 1l205.093 28.037a1.13 1.13 0 0 1 .707 1.853z" fill="#fff"/><path d="M172.705 71.887a.993.993 0 0 1-.377-.074L.623 1.926A.998.998 0 0 1 .034.742.998.998 0 0 1 1.136.009l205.093 28.037a2.132 2.132 0 0 1 1.332 3.493l-34.095 39.997a1.004 1.004 0 0 1-.761.351zM8.728 3.065l163.686 66.623 33.626-39.447a.117.117 0 0 0 .021-.131.116.116 0 0 0-.104-.082zM206.8 30.889h.01z" fill="#112c41"/><path d="M179.608 147.129a.338.338 0 0 1-.551.292l-42.093-34.609L1 1l171.705 69.887z" fill="#cbc8ff"/><path d="M179.271 148.498c-.304 0-.604-.104-.85-.305L.366 1.772A1 1 0 0 1 1.377.074l171.705 69.887a.999.999 0 0 1 .619.836l6.902 76.242a1.337 1.337 0 0 1-1.332 1.459zM6.717 4.406l171.752 141.236-6.705-74.06z" fill="#112c41"/><path d="m154.466 92.28 24.807 54.745c.101.223-.168.43-.358.274L1.001 1.004z" fill="#dedffe"/><path d="M179.063 148.353c-.278 0-.556-.095-.784-.283L.367 1.777A1 1 0 0 1 1.512.145L154.976 91.42c.176.104.315.261.4.446l24.808 54.745a1.224 1.224 0 0 1-.372 1.485 1.222 1.222 0 0 1-.749.257zM11.806 8.595l165.191 135.832-23.313-51.447z" fill="#112c41"/><path d="m154.464 92.283-17.501 20.528-31.232 36.633a1.68 1.68 0 0 1-2.662-.137L1 1z" fill="#fff"/><path d="M104.457 151.034a2.658 2.658 0 0 1-2.211-1.161L.176 1.567A1 1 0 0 1 1.511.14l153.464 91.283a.996.996 0 0 1 .25 1.508l-48.732 57.161a2.655 2.655 0 0 1-2.036.942zM4.411 4.192l99.483 144.547a.67.67 0 0 0 .524.294c.123-.005.361-.016.552-.237l47.963-56.26z" fill="#112c41"/></svg></g></svg>